# xmcd CD database file
#
# Track frame offsets:
#	150
#	16937
#	30422
#	46245
#	61355
#	73740
#	86757
#	100570
#	113142
#	127920
#	142135
#	153255
#	167327
#	181960
#
# Disc length: 2607 seconds
#
# Revision: 0
# Processed by: cddbd v1.4PL0 Copyright (c) Steve Scherf et al.
# Submitted via: CDex 1.40Release
#
DISCID=ac0a2d0e
DTITLE=Luke McDaniel - You're still on my mind
DYEAR=1900
DGENRE=Country
TTITLE0=Ramblin' shoes
TTITLE1=It was me
TTITLE2=Nickels and dimes
TTITLE3=You're still on my mind
TTITLE4=I can't stop my heart
TTITLE5=Six pallbearers
TTITLE6=Love is the winning hand
TTITLE7=Midnight raven
TTITLE8=Love is forever tonight
TTITLE9=She gives me love
TTITLE10=Love's gonna fly
TTITLE11=What a difference a day can make
TTITLE12=Cowboys never say goodbye
TTITLE13=Blue moon tonight
EXTD=ID3G: 2
EXTT0=
EXTT1=
EXTT2=
EXTT3=
EXTT4=
EXTT5=
EXTT6=
EXTT7=
EXTT8=
EXTT9=
EXTT10=
EXTT11=
EXTT12=
EXTT13=
PLAYORDER=
